<?xml version="1.0" standalone="no"?><!DOCTYPE svg PUBLIC "-//W3C//DTD SVG 1.1//EN" "http://www.w3.org/Graphics/SVG/1.1/DTD/svg11.dtd"><svg class="icon" width="200px" height="200.00px" viewBox="0 0 1024 1024" version="1.1" xmlns="http://www.w3.org/2000/svg"><path d="M511.994372 128.721687c-211.663724 0-383.278313 171.604356-383.278313 383.278313 0 211.672934 171.614589 383.276267 383.278313 383.276267 211.685213 0 383.28957-171.603333 383.28957-383.276267C895.283941 300.326043 723.679585 128.721687 511.994372 128.721687zM471.778438 687.533852c0 8.05649-2.870374 14.877849-8.588609 20.449751-5.718235 5.584182-12.600993 8.370645-20.638039 8.370645L326.572312 716.354248c-8.037047 0-14.84715-2.786463-20.409842-8.370645-5.572926-5.571902-8.349155-12.393261-8.349155-20.449751L297.813315 570.84727c0-8.058536 2.77623-14.877849 8.349155-20.449751 5.562692-5.573949 12.372795-8.370645 20.409842-8.370645l115.979478 0c8.037047 0 14.919804 2.795673 20.638039 8.370645 5.718235 5.571902 8.588609 12.391215 8.588609 20.449751L471.778438 687.533852zM471.778438 454.639594c0 8.058536-2.870374 14.951527-8.588609 20.690228-5.718235 5.728468-12.600993 8.587586-20.638039 8.587586L326.572312 483.917408c-8.037047 0-14.84715-2.859118-20.409842-8.587586-5.572926-5.738701-8.349155-12.632715-8.349155-20.690228L297.813315 338.420663c0-8.057513 2.77623-14.878872 8.349155-20.450774 5.562692-5.583159 12.372795-8.369621 20.409842-8.369621l115.979478 0c8.037047 0 14.919804 2.786463 20.638039 8.369621 5.718235 5.572926 8.588609 12.393261 8.588609 20.450774L471.778438 454.639594zM703.727161 687.533852c0 8.05649-2.77623 14.877849-8.349155 20.449751-5.571902 5.584182-12.371772 8.370645-20.408819 8.370645L558.989709 716.354248c-8.04728 0-14.931061-2.786463-20.649296-8.370645-5.718235-5.571902-8.588609-12.393261-8.588609-20.449751L529.751804 570.84727c0-8.058536 2.870374-14.877849 8.588609-20.449751 5.718235-5.573949 12.600993-8.370645 20.649296-8.370645l115.979478 0c8.037047 0 14.836917 2.795673 20.408819 8.370645 5.572926 5.571902 8.349155 12.391215 8.349155 20.449751L703.727161 687.533852zM720.351793 412.032194l-72.561619 72.529897c-5.208629 5.198395-11.248182 7.797593-18.142196 7.797593s-12.935614-2.599198-18.134009-7.797593l-72.570829-72.529897c-4.949732-4.948709-7.424086-10.916631-7.424086-17.934464 0-7.017834 2.474354-13.132088 7.424086-18.330484l72.570829-72.529897c5.198395-4.938476 11.239995-7.402597 18.134009-7.402597s12.933567 2.464121 18.142196 7.402597l72.561619 72.529897c5.209652 5.198395 7.80885 11.311627 7.80885 18.330484C728.160643 401.115564 725.561445 407.083485 720.351793 412.032194z" /></svg>