<?xml version="1.0" standalone="no"?><!DOCTYPE svg PUBLIC "-//W3C//DTD SVG 1.1//EN" "http://www.w3.org/Graphics/SVG/1.1/DTD/svg11.dtd"><svg t="1539069686327" class="icon" style="" viewBox="0 0 1024 1024" version="1.1" xmlns="http://www.w3.org/2000/svg" p-id="3564" xmlns:xlink="http://www.w3.org/1999/xlink" width="128" height="128"><defs><style type="text/css"></style></defs><path d="M301.801377 828.732726C321.51933 828.732726 337.522307 812.729749 337.522307 793.011795L337.522307 468.784819C337.522307 449.066865 321.51933 433.063888 301.801377 433.063888 282.083423 433.063888 266.080447 449.066865 266.080447 468.784819L266.080447 793.011795C266.080447 812.729749 282.083423 828.732726 301.801377 828.732726ZM538.545414 793.011795 538.545414 468.784819C538.545414 449.066865 522.542437 433.063888 502.824484 433.063888 483.10653 433.063888 467.103553 449.066865 467.103553 468.784819L467.103553 793.011795C467.103553 812.729749 483.10653 828.732726 502.824484 828.732726 522.542437 828.732726 538.545414 812.729749 538.545414 793.011795ZM739.568521 793.011795 739.568521 468.784819C739.568521 449.066865 723.565544 433.063888 703.847591 433.063888 684.129637 433.063888 668.12666 449.066865 668.12666 468.784819L668.12666 793.011795C668.12666 812.729749 684.129637 828.732726 703.847591 828.732726 723.565544 828.732726 739.568521 812.729749 739.568521 793.011795ZM347.802791 125.523349 347.802791 81.562791C347.802791 75.990326 352.279814 71.44186 357.828465 71.44186L647.358512 71.44186C652.811907 71.44186 657.384186 76.085581 657.384186 81.562791L657.384186 125.523349 347.802791 125.523349ZM969.96614 125.523349 728.826047 125.523349 728.826047 81.562791C728.826047 36.602047 692.295442 0 647.358512 0L357.828465 0C312.891535 0 276.36093 36.602047 276.36093 81.562791L276.36093 125.523349 35.72093 125.523349C15.979163 125.523349 0 141.526326 0 161.244279 0 180.962233 15.979163 196.965209 35.72093 196.965209L276.36093 196.965209 728.826047 196.965209 969.96614 196.965209C989.684093 196.965209 1005.68707 180.962233 1005.68707 161.244279 1005.68707 141.526326 989.684093 125.523349 969.96614 125.523349ZM70.825079 643.6864C70.825079 663.404353 86.828056 679.40733 106.546009 679.40733 126.263963 679.40733 142.26694 663.404353 142.26694 643.6864L142.26694 334.795609 874.903219 334.795609 874.903219 804.502028C874.903219 909.664447 836.205544 952.577191 741.330753 952.577191L275.815591 952.577191C179.702474 952.577191 142.26694 911.06947 142.26694 804.502028 142.26694 784.784074 126.263963 768.781098 106.546009 768.781098 86.828056 768.781098 70.825079 784.784074 70.825079 804.502028 70.825079 950.148167 139.790288 1024.019051 275.815591 1024.019051L741.330753 1024.019051C877.356056 1024.019051 946.345079 950.148167 946.345079 804.502028L946.345079 263.353749 70.825079 263.353749 70.825079 643.6864Z" p-id="3565" fill="#333333"></path></svg>